<?xml version="1.0" encoding="utf-8" standalone="no"?>
<!DOCTYPE svg PUBLIC "-//W3C//DTD SVG 1.1//EN"
  "http://www.w3.org/Graphics/SVG/1.1/DTD/svg11.dtd">
<svg xmlns:xlink="http://www.w3.org/1999/xlink" width="432pt" height="432pt" viewBox="0 0 432 432" xmlns="http://www.w3.org/2000/svg" version="1.1">
 <metadata>
  <rdf:RDF xmlns:dc="http://purl.org/dc/elements/1.1/" xmlns:cc="http://creativecommons.org/ns#" xmlns:rdf="http://www.w3.org/1999/02/22-rdf-syntax-ns#">
   <cc:Work>
    <dc:type rdf:resource="http://purl.org/dc/dcmitype/StillImage"/>
    <dc:date>2025-04-29T23:39:42.470825</dc:date>
    <dc:format>image/svg+xml</dc:format>
    <dc:creator>
     <cc:Agent>
      <dc:title>Matplotlib v3.10.0, https://matplotlib.org/</dc:title>
     </cc:Agent>
    </dc:creator>
   </cc:Work>
  </rdf:RDF>
 </metadata>
 <defs>
  <style type="text/css">*{stroke-linejoin: round; stroke-linecap: butt}</style>
 </defs>
 <g id="figure_1">
  <g id="patch_1">
   <path d="M 0 432 
L 432 432 
L 432 0 
L 0 0 
z
" style="fill: #ffffff"/>
  </g>
  <g id="axes_1">
   <g id="patch_2">
    <path d="M 54 384.48 
L 388.8 384.48 
L 388.8 51.84 
L 54 51.84 
z
" style="fill: #ffffff"/>
   </g>
   <g id="FillBetweenPolyCollection_1">
    <defs>
     <path id="mbde179f19b" d="M 69.218182 -62.64 
L 69.218182 -365.04 
L 70.253432 -360.897534 
L 71.288683 -352.612603 
L 72.323933 -352.612603 
L 73.359184 -348.470137 
L 74.394434 -344.327671 
L 75.429685 -344.327671 
L 76.464935 -336.04274 
L 77.500186 -331.900274 
L 78.535436 -327.757808 
L 79.570686 -319.472877 
L 80.605937 -319.472877 
L 81.641187 -319.472877 
L 82.676438 -319.472877 
L 83.711688 -319.472877 
L 84.746939 -319.472877 
L 85.782189 -315.330411 
L 86.81744 -315.330411 
L 87.85269 -315.330411 
L 88.887941 -315.330411 
L 89.923191 -311.187945 
L 90.958442 -311.187945 
L 91.993692 -311.187945 
L 93.028942 -311.187945 
L 94.064193 -307.045479 
L 95.099443 -307.045479 
L 96.134694 -307.045479 
L 97.169944 -307.045479 
L 98.205195 -307.045479 
L 99.240445 -302.903014 
L 100.275696 -302.903014 
L 101.310946 -298.760548 
L 102.346197 -298.760548 
L 103.381447 -298.760548 
L 104.416698 -298.760548 
L 105.451948 -298.760548 
L 106.487199 -294.618082 
L 107.522449 -294.618082 
L 108.557699 -294.618082 
L 109.59295 -294.618082 
L 110.6282 -290.475616 
L 111.663451 -290.475616 
L 112.698701 -290.475616 
L 113.733952 -290.475616 
L 114.769202 -286.333151 
L 115.804453 -286.333151 
L 116.839703 -286.333151 
L 117.874954 -286.333151 
L 118.910204 -286.333151 
L 119.945455 -286.333151 
L 120.980705 -286.333151 
L 122.015955 -286.333151 
L 123.051206 -282.190685 
L 124.086456 -282.190685 
L 125.121707 -282.190685 
L 126.156957 -282.190685 
L 127.192208 -282.190685 
L 128.227458 -282.190685 
L 128.227458 -62.64 
L 128.227458 -62.64 
L 127.192208 -62.64 
L 126.156957 -62.64 
L 125.121707 -62.64 
L 124.086456 -62.64 
L 123.051206 -62.64 
L 122.015955 -62.64 
L 120.980705 -62.64 
L 119.945455 -62.64 
L 118.910204 -62.64 
L 117.874954 -62.64 
L 116.839703 -62.64 
L 115.804453 -62.64 
L 114.769202 -62.64 
L 113.733952 -62.64 
L 112.698701 -62.64 
L 111.663451 -62.64 
L 110.6282 -62.64 
L 109.59295 -62.64 
L 108.557699 -62.64 
L 107.522449 -62.64 
L 106.487199 -62.64 
L 105.451948 -62.64 
L 104.416698 -62.64 
L 103.381447 -62.64 
L 102.346197 -62.64 
L 101.310946 -62.64 
L 100.275696 -62.64 
L 99.240445 -62.64 
L 98.205195 -62.64 
L 97.169944 -62.64 
L 96.134694 -62.64 
L 95.099443 -62.64 
L 94.064193 -62.64 
L 93.028942 -62.64 
L 91.993692 -62.64 
L 90.958442 -62.64 
L 89.923191 -62.64 
L 88.887941 -62.64 
L 87.85269 -62.64 
L 86.81744 -62.64 
L 85.782189 -62.64 
L 84.746939 -62.64 
L 83.711688 -62.64 
L 82.676438 -62.64 
L 81.641187 -62.64 
L 80.605937 -62.64 
L 79.570686 -62.64 
L 78.535436 -62.64 
L 77.500186 -62.64 
L 76.464935 -62.64 
L 75.429685 -62.64 
L 74.394434 -62.64 
L 73.359184 -62.64 
L 72.323933 -62.64 
L 71.288683 -62.64 
L 70.253432 -62.64 
L 69.218182 -62.64 
z
" style="stroke: #0000ff; stroke-opacity: 0.3"/>
    </defs>
    <g clip-path="url(#p8adc5f5cd4)">
     <use xlink:href="#mbde179f19b" x="0" y="432" style="fill: #0000ff; fill-opacity: 0.3; stroke: #0000ff; stroke-opacity: 0.3"/>
    </g>
   </g>
   <g id="FillBetweenPolyCollection_2">
    <defs>
     <path id="m650c8b8d4a" d="M 129.262709 -62.64 
L 129.262709 -278.048219 
L 130.297959 -278.048219 
L 131.33321 -278.048219 
L 132.36846 -278.048219 
L 133.403711 -278.048219 
L 134.438961 -278.048219 
L 135.474212 -278.048219 
L 136.509462 -278.048219 
L 137.544712 -278.048219 
L 138.579963 -278.048219 
L 139.615213 -278.048219 
L 140.650464 -278.048219 
L 141.685714 -278.048219 
L 142.720965 -278.048219 
L 143.756215 -273.905753 
L 144.791466 -273.905753 
L 145.826716 -273.905753 
L 146.861967 -273.905753 
L 147.897217 -273.905753 
L 148.932468 -273.905753 
L 149.967718 -273.905753 
L 151.002968 -273.905753 
L 152.038219 -273.905753 
L 153.073469 -273.905753 
L 154.10872 -269.763288 
L 155.14397 -269.763288 
L 156.179221 -269.763288 
L 157.214471 -269.763288 
L 158.249722 -269.763288 
L 159.284972 -269.763288 
L 160.320223 -269.763288 
L 161.355473 -269.763288 
L 162.390724 -269.763288 
L 163.425974 -269.763288 
L 164.461224 -269.763288 
L 165.496475 -269.763288 
L 166.531725 -265.620822 
L 167.566976 -265.620822 
L 168.602226 -265.620822 
L 169.637477 -265.620822 
L 170.672727 -265.620822 
L 171.707978 -265.620822 
L 172.743228 -265.620822 
L 173.778479 -265.620822 
L 174.813729 -265.620822 
L 175.84898 -261.478356 
L 176.88423 -261.478356 
L 177.919481 -261.478356 
L 178.954731 -261.478356 
L 179.989981 -261.478356 
L 181.025232 -261.478356 
L 182.060482 -261.478356 
L 183.095733 -261.478356 
L 184.130983 -261.478356 
L 185.166234 -261.478356 
L 186.201484 -261.478356 
L 187.236735 -261.478356 
L 188.271985 -261.478356 
L 189.307236 -261.478356 
L 190.342486 -261.478356 
L 191.377737 -261.478356 
L 192.412987 -261.478356 
L 193.448237 -261.478356 
L 194.483488 -261.478356 
L 195.518738 -261.478356 
L 196.553989 -261.478356 
L 197.589239 -257.33589 
L 198.62449 -257.33589 
L 199.65974 -257.33589 
L 200.694991 -257.33589 
L 201.730241 -257.33589 
L 202.765492 -257.33589 
L 203.800742 -257.33589 
L 204.835993 -257.33589 
L 205.871243 -257.33589 
L 206.906494 -257.33589 
L 207.941744 -257.33589 
L 208.976994 -257.33589 
L 210.012245 -253.193425 
L 211.047495 -253.193425 
L 212.082746 -253.193425 
L 213.117996 -253.193425 
L 214.153247 -253.193425 
L 215.188497 -253.193425 
L 216.223748 -253.193425 
L 217.258998 -253.193425 
L 218.294249 -253.193425 
L 219.329499 -253.193425 
L 220.36475 -253.193425 
L 221.4 -253.193425 
L 222.43525 -253.193425 
L 223.470501 -253.193425 
L 224.505751 -253.193425 
L 225.541002 -253.193425 
L 226.576252 -253.193425 
L 227.611503 -253.193425 
L 228.646753 -253.193425 
L 229.682004 -249.050959 
L 230.717254 -249.050959 
L 231.752505 -249.050959 
L 232.787755 -249.050959 
L 233.823006 -249.050959 
L 234.858256 -249.050959 
L 235.893506 -249.050959 
L 236.928757 -244.908493 
L 237.964007 -244.908493 
L 238.999258 -244.908493 
L 240.034508 -244.908493 
L 241.069759 -244.908493 
L 242.105009 -244.908493 
L 243.14026 -244.908493 
L 244.17551 -244.908493 
L 245.210761 -244.908493 
L 246.246011 -244.908493 
L 247.281262 -244.908493 
L 248.316512 -244.908493 
L 249.351763 -244.908493 
L 250.387013 -244.908493 
L 251.422263 -244.908493 
L 252.457514 -244.908493 
L 253.492764 -244.908493 
L 254.528015 -244.908493 
L 255.563265 -244.908493 
L 256.598516 -240.766027 
L 257.633766 -240.766027 
L 258.669017 -240.766027 
L 259.704267 -240.766027 
L 260.739518 -240.766027 
L 261.774768 -240.766027 
L 262.810019 -240.766027 
L 263.845269 -240.766027 
L 264.880519 -236.623562 
L 265.91577 -236.623562 
L 266.95102 -236.623562 
L 267.986271 -236.623562 
L 269.021521 -236.623562 
L 270.056772 -236.623562 
L 271.092022 -236.623562 
L 272.127273 -236.623562 
L 273.162523 -236.623562 
L 274.197774 -236.623562 
L 275.233024 -236.623562 
L 276.268275 -236.623562 
L 277.303525 -232.481096 
L 278.338776 -232.481096 
L 279.374026 -232.481096 
L 280.409276 -232.481096 
L 281.444527 -232.481096 
L 282.479777 -232.481096 
L 283.515028 -232.481096 
L 284.550278 -232.481096 
L 285.585529 -228.33863 
L 286.620779 -228.33863 
L 287.65603 -228.33863 
L 288.69128 -228.33863 
L 289.726531 -228.33863 
L 290.761781 -228.33863 
L 291.797032 -228.33863 
L 292.832282 -228.33863 
L 293.867532 -228.33863 
L 294.902783 -228.33863 
L 295.938033 -228.33863 
L 296.973284 -224.196164 
L 298.008534 -224.196164 
L 299.043785 -224.196164 
L 300.079035 -224.196164 
L 301.114286 -224.196164 
L 302.149536 -224.196164 
L 303.184787 -224.196164 
L 304.220037 -224.196164 
L 305.255288 -224.196164 
L 306.290538 -224.196164 
L 307.325788 -224.196164 
L 308.361039 -220.053699 
L 309.396289 -220.053699 
L 310.43154 -220.053699 
L 311.46679 -220.053699 
L 312.502041 -220.053699 
L 313.537291 -220.053699 
L 314.572542 -220.053699 
L 315.607792 -220.053699 
L 316.643043 -220.053699 
L 317.678293 -220.053699 
L 318.713544 -220.053699 
L 319.748794 -220.053699 
L 320.784045 -215.911233 
L 321.819295 -215.911233 
L 322.854545 -215.911233 
L 323.889796 -215.911233 
L 324.925046 -215.911233 
L 325.960297 -215.911233 
L 326.995547 -215.911233 
L 328.030798 -215.911233 
L 329.066048 -211.768767 
L 330.101299 -211.768767 
L 331.136549 -211.768767 
L 332.1718 -211.768767 
L 333.20705 -211.768767 
L 334.242301 -211.768767 
L 335.277551 -211.768767 
L 336.312801 -211.768767 
L 337.348052 -211.768767 
L 338.383302 -211.768767 
L 339.418553 -211.768767 
L 340.453803 -207.626301 
L 341.489054 -207.626301 
L 342.524304 -207.626301 
L 343.559555 -207.626301 
L 344.594805 -207.626301 
L 345.630056 -207.626301 
L 346.665306 -207.626301 
L 347.700557 -207.626301 
L 348.735807 -203.483836 
L 349.771058 -203.483836 
L 350.806308 -203.483836 
L 351.841558 -203.483836 
L 352.876809 -203.483836 
L 353.912059 -203.483836 
L 354.94731 -203.483836 
L 355.98256 -203.483836 
L 357.017811 -203.483836 
L 358.053061 -199.34137 
L 359.088312 -195.198904 
L 360.123562 -195.198904 
L 361.158813 -195.198904 
L 362.194063 -195.198904 
L 363.229314 -195.198904 
L 364.264564 -195.198904 
L 365.299814 -195.198904 
L 366.335065 -195.198904 
L 367.370315 -191.056438 
L 368.405566 -191.056438 
L 369.440816 -191.056438 
L 370.476067 -191.056438 
L 371.511317 -186.913973 
L 372.546568 -186.913973 
L 373.581818 -186.913973 
L 373.581818 -62.64 
L 373.581818 -62.64 
L 372.546568 -62.64 
L 371.511317 -62.64 
L 370.476067 -62.64 
L 369.440816 -62.64 
L 368.405566 -62.64 
L 367.370315 -62.64 
L 366.335065 -62.64 
L 365.299814 -62.64 
L 364.264564 -62.64 
L 363.229314 -62.64 
L 362.194063 -62.64 
L 361.158813 -62.64 
L 360.123562 -62.64 
L 359.088312 -62.64 
L 358.053061 -62.64 
L 357.017811 -62.64 
L 355.98256 -62.64 
L 354.94731 -62.64 
L 353.912059 -62.64 
L 352.876809 -62.64 
L 351.841558 -62.64 
L 350.806308 -62.64 
L 349.771058 -62.64 
L 348.735807 -62.64 
L 347.700557 -62.64 
L 346.665306 -62.64 
L 345.630056 -62.64 
L 344.594805 -62.64 
L 343.559555 -62.64 
L 342.524304 -62.64 
L 341.489054 -62.64 
L 340.453803 -62.64 
L 339.418553 -62.64 
L 338.383302 -62.64 
L 337.348052 -62.64 
L 336.312801 -62.64 
L 335.277551 -62.64 
L 334.242301 -62.64 
L 333.20705 -62.64 
L 332.1718 -62.64 
L 331.136549 -62.64 
L 330.101299 -62.64 
L 329.066048 -62.64 
L 328.030798 -62.64 
L 326.995547 -62.64 
L 325.960297 -62.64 
L 324.925046 -62.64 
L 323.889796 -62.64 
L 322.854545 -62.64 
L 321.819295 -62.64 
L 320.784045 -62.64 
L 319.748794 -62.64 
L 318.713544 -62.64 
L 317.678293 -62.64 
L 316.643043 -62.64 
L 315.607792 -62.64 
L 314.572542 -62.64 
L 313.537291 -62.64 
L 312.502041 -62.64 
L 311.46679 -62.64 
L 310.43154 -62.64 
L 309.396289 -62.64 
L 308.361039 -62.64 
L 307.325788 -62.64 
L 306.290538 -62.64 
L 305.255288 -62.64 
L 304.220037 -62.64 
L 303.184787 -62.64 
L 302.149536 -62.64 
L 301.114286 -62.64 
L 300.079035 -62.64 
L 299.043785 -62.64 
L 298.008534 -62.64 
L 296.973284 -62.64 
L 295.938033 -62.64 
L 294.902783 -62.64 
L 293.867532 -62.64 
L 292.832282 -62.64 
L 291.797032 -62.64 
L 290.761781 -62.64 
L 289.726531 -62.64 
L 288.69128 -62.64 
L 287.65603 -62.64 
L 286.620779 -62.64 
L 285.585529 -62.64 
L 284.550278 -62.64 
L 283.515028 -62.64 
L 282.479777 -62.64 
L 281.444527 -62.64 
L 280.409276 -62.64 
L 279.374026 -62.64 
L 278.338776 -62.64 
L 277.303525 -62.64 
L 276.268275 -62.64 
L 275.233024 -62.64 
L 274.197774 -62.64 
L 273.162523 -62.64 
L 272.127273 -62.64 
L 271.092022 -62.64 
L 270.056772 -62.64 
L 269.021521 -62.64 
L 267.986271 -62.64 
L 266.95102 -62.64 
L 265.91577 -62.64 
L 264.880519 -62.64 
L 263.845269 -62.64 
L 262.810019 -62.64 
L 261.774768 -62.64 
L 260.739518 -62.64 
L 259.704267 -62.64 
L 258.669017 -62.64 
L 257.633766 -62.64 
L 256.598516 -62.64 
L 255.563265 -62.64 
L 254.528015 -62.64 
L 253.492764 -62.64 
L 252.457514 -62.64 
L 251.422263 -62.64 
L 250.387013 -62.64 
L 249.351763 -62.64 
L 248.316512 -62.64 
L 247.281262 -62.64 
L 246.246011 -62.64 
L 245.210761 -62.64 
L 244.17551 -62.64 
L 243.14026 -62.64 
L 242.105009 -62.64 
L 241.069759 -62.64 
L 240.034508 -62.64 
L 238.999258 -62.64 
L 237.964007 -62.64 
L 236.928757 -62.64 
L 235.893506 -62.64 
L 234.858256 -62.64 
L 233.823006 -62.64 
L 232.787755 -62.64 
L 231.752505 -62.64 
L 230.717254 -62.64 
L 229.682004 -62.64 
L 228.646753 -62.64 
L 227.611503 -62.64 
L 226.576252 -62.64 
L 225.541002 -62.64 
L 224.505751 -62.64 
L 223.470501 -62.64 
L 222.43525 -62.64 
L 221.4 -62.64 
L 220.36475 -62.64 
L 219.329499 -62.64 
L 218.294249 -62.64 
L 217.258998 -62.64 
L 216.223748 -62.64 
L 215.188497 -62.64 
L 214.153247 -62.64 
L 213.117996 -62.64 
L 212.082746 -62.64 
L 211.047495 -62.64 
L 210.012245 -62.64 
L 208.976994 -62.64 
L 207.941744 -62.64 
L 206.906494 -62.64 
L 205.871243 -62.64 
L 204.835993 -62.64 
L 203.800742 -62.64 
L 202.765492 -62.64 
L 201.730241 -62.64 
L 200.694991 -62.64 
L 199.65974 -62.64 
L 198.62449 -62.64 
L 197.589239 -62.64 
L 196.553989 -62.64 
L 195.518738 -62.64 
L 194.483488 -62.64 
L 193.448237 -62.64 
L 192.412987 -62.64 
L 191.377737 -62.64 
L 190.342486 -62.64 
L 189.307236 -62.64 
L 188.271985 -62.64 
L 187.236735 -62.64 
L 186.201484 -62.64 
L 185.166234 -62.64 
L 184.130983 -62.64 
L 183.095733 -62.64 
L 182.060482 -62.64 
L 181.025232 -62.64 
L 179.989981 -62.64 
L 178.954731 -62.64 
L 177.919481 -62.64 
L 176.88423 -62.64 
L 175.84898 -62.64 
L 174.813729 -62.64 
L 173.778479 -62.64 
L 172.743228 -62.64 
L 171.707978 -62.64 
L 170.672727 -62.64 
L 169.637477 -62.64 
L 168.602226 -62.64 
L 167.566976 -62.64 
L 166.531725 -62.64 
L 165.496475 -62.64 
L 164.461224 -62.64 
L 163.425974 -62.64 
L 162.390724 -62.64 
L 161.355473 -62.64 
L 160.320223 -62.64 
L 159.284972 -62.64 
L 158.249722 -62.64 
L 157.214471 -62.64 
L 156.179221 -62.64 
L 155.14397 -62.64 
L 154.10872 -62.64 
L 153.073469 -62.64 
L 152.038219 -62.64 
L 151.002968 -62.64 
L 149.967718 -62.64 
L 148.932468 -62.64 
L 147.897217 -62.64 
L 146.861967 -62.64 
L 145.826716 -62.64 
L 144.791466 -62.64 
L 143.756215 -62.64 
L 142.720965 -62.64 
L 141.685714 -62.64 
L 140.650464 -62.64 
L 139.615213 -62.64 
L 138.579963 -62.64 
L 137.544712 -62.64 
L 136.509462 -62.64 
L 135.474212 -62.64 
L 134.438961 -62.64 
L 133.403711 -62.64 
L 132.36846 -62.64 
L 131.33321 -62.64 
L 130.297959 -62.64 
L 129.262709 -62.64 
z
" style="stroke: #008000; stroke-opacity: 0.3"/>
    </defs>
    <g clip-path="url(#p8adc5f5cd4)">
     <use xlink:href="#m650c8b8d4a" x="0" y="432" style="fill: #008000; fill-opacity: 0.3; stroke: #008000; stroke-opacity: 0.3"/>
    </g>
   </g>
   <g id="matplotlib.axis_1">
    <g id="xtick_1">
     <g id="line2d_1">
      <path d="M 68.182931 384.48 
L 68.182931 51.84 
" clip-path="url(#p8adc5f5cd4)" style="fill: none; stroke: #b0b0b0; stroke-width: 0.8; stroke-linecap: square"/>
     </g>
     <g id="line2d_2">
      <defs>
       <path id="m1ed7beffa5" d="M 0 0 
L 0 3.5 
" style="stroke: #000000; stroke-width: 0.8"/>
      </defs>
      <g>
       <use xlink:href="#m1ed7beffa5" x="68.182931" y="384.48" style="stroke: #000000; stroke-width: 0.8"/>
      </g>
     </g>
     <g id="text_1">
      <!-- 0 -->
      <g transform="translate(65.001681 399.078438) scale(0.1 -0.1)">
       <defs>
        <path id="DejaVuSans-30" d="M 2034 4250 
Q 1547 4250 1301 3770 
Q 1056 3291 1056 2328 
Q 1056 1369 1301 889 
Q 1547 409 2034 409 
Q 2525 409 2770 889 
Q 3016 1369 3016 2328 
Q 3016 3291 2770 3770 
Q 2525 4250 2034 4250 
z
M 2034 4750 
Q 2819 4750 3233 4129 
Q 3647 3509 3647 2328 
Q 3647 1150 3233 529 
Q 2819 -91 2034 -91 
Q 1250 -91 836 529 
Q 422 1150 422 2328 
Q 422 3509 836 4129 
Q 1250 4750 2034 4750 
z
" transform="scale(0.015625)"/>
       </defs>
       <use xlink:href="#DejaVuSans-30"/>
      </g>
     </g>
    </g>
    <g id="xtick_2">
     <g id="line2d_3">
      <path d="M 119.945455 384.48 
L 119.945455 51.84 
" clip-path="url(#p8adc5f5cd4)" style="fill: none; stroke: #b0b0b0; stroke-width: 0.8; stroke-linecap: square"/>
     </g>
     <g id="line2d_4">
      <g>
       <use xlink:href="#m1ed7beffa5" x="119.945455" y="384.48" style="stroke: #000000; stroke-width: 0.8"/>
      </g>
     </g>
     <g id="text_2">
      <!-- 50 -->
      <g transform="translate(113.582955 399.078438) scale(0.1 -0.1)">
       <defs>
        <path id="DejaVuSans-35" d="M 691 4666 
L 3169 4666 
L 3169 4134 
L 1269 4134 
L 1269 2991 
Q 1406 3038 1543 3061 
Q 1681 3084 1819 3084 
Q 2600 3084 3056 2656 
Q 3513 2228 3513 1497 
Q 3513 744 3044 326 
Q 2575 -91 1722 -91 
Q 1428 -91 1123 -41 
Q 819 9 494 109 
L 494 744 
Q 775 591 1075 516 
Q 1375 441 1709 441 
Q 2250 441 2565 725 
Q 2881 1009 2881 1497 
Q 2881 1984 2565 2268 
Q 2250 2553 1709 2553 
Q 1456 2553 1204 2497 
Q 953 2441 691 2322 
L 691 4666 
z
" transform="scale(0.015625)"/>
       </defs>
       <use xlink:href="#DejaVuSans-35"/>
       <use xlink:href="#DejaVuSans-30" transform="translate(63.623047 0)"/>
      </g>
     </g>
    </g>
    <g id="xtick_3">
     <g id="line2d_5">
      <path d="M 171.707978 384.48 
L 171.707978 51.84 
" clip-path="url(#p8adc5f5cd4)" style="fill: none; stroke: #b0b0b0; stroke-width: 0.8; stroke-linecap: square"/>
     </g>
     <g id="line2d_6">
      <g>
       <use xlink:href="#m1ed7beffa5" x="171.707978" y="384.48" style="stroke: #000000; stroke-width: 0.8"/>
      </g>
     </g>
     <g id="text_3">
      <!-- 100 -->
      <g transform="translate(162.164228 399.078438) scale(0.1 -0.1)">
       <defs>
        <path id="DejaVuSans-31" d="M 794 531 
L 1825 531 
L 1825 4091 
L 703 3866 
L 703 4441 
L 1819 4666 
L 2450 4666 
L 2450 531 
L 3481 531 
L 3481 0 
L 794 0 
L 794 531 
z
" transform="scale(0.015625)"/>
       </defs>
       <use xlink:href="#DejaVuSans-31"/>
       <use xlink:href="#DejaVuSans-30" transform="translate(63.623047 0)"/>
       <use xlink:href="#DejaVuSans-30" transform="translate(127.246094 0)"/>
      </g>
     </g>
    </g>
    <g id="xtick_4">
     <g id="line2d_7">
      <path d="M 223.470501 384.48 
L 223.470501 51.84 
" clip-path="url(#p8adc5f5cd4)" style="fill: none; stroke: #b0b0b0; stroke-width: 0.8; stroke-linecap: square"/>
     </g>
     <g id="line2d_8">
      <g>
       <use xlink:href="#m1ed7beffa5" x="223.470501" y="384.48" style="stroke: #000000; stroke-width: 0.8"/>
      </g>
     </g>
     <g id="text_4">
      <!-- 150 -->
      <g transform="translate(213.926751 399.078438) scale(0.1 -0.1)">
       <use xlink:href="#DejaVuSans-31"/>
       <use xlink:href="#DejaVuSans-35" transform="translate(63.623047 0)"/>
       <use xlink:href="#DejaVuSans-30" transform="translate(127.246094 0)"/>
      </g>
     </g>
    </g>
    <g id="xtick_5">
     <g id="line2d_9">
      <path d="M 275.233024 384.48 
L 275.233024 51.84 
" clip-path="url(#p8adc5f5cd4)" style="fill: none; stroke: #b0b0b0; stroke-width: 0.8; stroke-linecap: square"/>
     </g>
     <g id="line2d_10">
      <g>
       <use xlink:href="#m1ed7beffa5" x="275.233024" y="384.48" style="stroke: #000000; stroke-width: 0.8"/>
      </g>
     </g>
     <g id="text_5">
      <!-- 200 -->
      <g transform="translate(265.689274 399.078438) scale(0.1 -0.1)">
       <defs>
        <path id="DejaVuSans-32" d="M 1228 531 
L 3431 531 
L 3431 0 
L 469 0 
L 469 531 
Q 828 903 1448 1529 
Q 2069 2156 2228 2338 
Q 2531 2678 2651 2914 
Q 2772 3150 2772 3378 
Q 2772 3750 2511 3984 
Q 2250 4219 1831 4219 
Q 1534 4219 1204 4116 
Q 875 4013 500 3803 
L 500 4441 
Q 881 4594 1212 4672 
Q 1544 4750 1819 4750 
Q 2544 4750 2975 4387 
Q 3406 4025 3406 3419 
Q 3406 3131 3298 2873 
Q 3191 2616 2906 2266 
Q 2828 2175 2409 1742 
Q 1991 1309 1228 531 
z
" transform="scale(0.015625)"/>
       </defs>
       <use xlink:href="#DejaVuSans-32"/>
       <use xlink:href="#DejaVuSans-30" transform="translate(63.623047 0)"/>
       <use xlink:href="#DejaVuSans-30" transform="translate(127.246094 0)"/>
      </g>
     </g>
    </g>
    <g id="xtick_6">
     <g id="line2d_11">
      <path d="M 326.995547 384.48 
L 326.995547 51.84 
" clip-path="url(#p8adc5f5cd4)" style="fill: none; stroke: #b0b0b0; stroke-width: 0.8; stroke-linecap: square"/>
     </g>
     <g id="line2d_12">
      <g>
       <use xlink:href="#m1ed7beffa5" x="326.995547" y="384.48" style="stroke: #000000; stroke-width: 0.8"/>
      </g>
     </g>
     <g id="text_6">
      <!-- 250 -->
      <g transform="translate(317.451797 399.078438) scale(0.1 -0.1)">
       <use xlink:href="#DejaVuSans-32"/>
       <use xlink:href="#DejaVuSans-35" transform="translate(63.623047 0)"/>
       <use xlink:href="#DejaVuSans-30" transform="translate(127.246094 0)"/>
      </g>
     </g>
    </g>
    <g id="xtick_7">
     <g id="line2d_13">
      <path d="M 378.758071 384.48 
L 378.758071 51.84 
" clip-path="url(#p8adc5f5cd4)" style="fill: none; stroke: #b0b0b0; stroke-width: 0.8; stroke-linecap: square"/>
     </g>
     <g id="line2d_14">
      <g>
       <use xlink:href="#m1ed7beffa5" x="378.758071" y="384.48" style="stroke: #000000; stroke-width: 0.8"/>
      </g>
     </g>
     <g id="text_7">
      <!-- 300 -->
      <g transform="translate(369.214321 399.078438) scale(0.1 -0.1)">
       <defs>
        <path id="DejaVuSans-33" d="M 2597 2516 
Q 3050 2419 3304 2112 
Q 3559 1806 3559 1356 
Q 3559 666 3084 287 
Q 2609 -91 1734 -91 
Q 1441 -91 1130 -33 
Q 819 25 488 141 
L 488 750 
Q 750 597 1062 519 
Q 1375 441 1716 441 
Q 2309 441 2620 675 
Q 2931 909 2931 1356 
Q 2931 1769 2642 2001 
Q 2353 2234 1838 2234 
L 1294 2234 
L 1294 2753 
L 1863 2753 
Q 2328 2753 2575 2939 
Q 2822 3125 2822 3475 
Q 2822 3834 2567 4026 
Q 2313 4219 1838 4219 
Q 1578 4219 1281 4162 
Q 984 4106 628 3988 
L 628 4550 
Q 988 4650 1302 4700 
Q 1616 4750 1894 4750 
Q 2613 4750 3031 4423 
Q 3450 4097 3450 3541 
Q 3450 3153 3228 2886 
Q 3006 2619 2597 2516 
z
" transform="scale(0.015625)"/>
       </defs>
       <use xlink:href="#DejaVuSans-33"/>
       <use xlink:href="#DejaVuSans-30" transform="translate(63.623047 0)"/>
       <use xlink:href="#DejaVuSans-30" transform="translate(127.246094 0)"/>
      </g>
     </g>
    </g>
    <g id="text_8">
     <!-- Ranked Position -->
     <g transform="translate(181.7875 412.756563) scale(0.1 -0.1)">
      <defs>
       <path id="DejaVuSans-52" d="M 2841 2188 
Q 3044 2119 3236 1894 
Q 3428 1669 3622 1275 
L 4263 0 
L 3584 0 
L 2988 1197 
Q 2756 1666 2539 1819 
Q 2322 1972 1947 1972 
L 1259 1972 
L 1259 0 
L 628 0 
L 628 4666 
L 2053 4666 
Q 2853 4666 3247 4331 
Q 3641 3997 3641 3322 
Q 3641 2881 3436 2590 
Q 3231 2300 2841 2188 
z
M 1259 4147 
L 1259 2491 
L 2053 2491 
Q 2509 2491 2742 2702 
Q 2975 2913 2975 3322 
Q 2975 3731 2742 3939 
Q 2509 4147 2053 4147 
L 1259 4147 
z
" transform="scale(0.015625)"/>
       <path id="DejaVuSans-61" d="M 2194 1759 
Q 1497 1759 1228 1600 
Q 959 1441 959 1056 
Q 959 750 1161 570 
Q 1363 391 1709 391 
Q 2188 391 2477 730 
Q 2766 1069 2766 1631 
L 2766 1759 
L 2194 1759 
z
M 3341 1997 
L 3341 0 
L 2766 0 
L 2766 531 
Q 2569 213 2275 61 
Q 1981 -91 1556 -91 
Q 1019 -91 701 211 
Q 384 513 384 1019 
Q 384 1609 779 1909 
Q 1175 2209 1959 2209 
L 2766 2209 
L 2766 2266 
Q 2766 2663 2505 2880 
Q 2244 3097 1772 3097 
Q 1472 3097 1187 3025 
Q 903 2953 641 2809 
L 641 3341 
Q 956 3463 1253 3523 
Q 1550 3584 1831 3584 
Q 2591 3584 2966 3190 
Q 3341 2797 3341 1997 
z
" transform="scale(0.015625)"/>
       <path id="DejaVuSans-6e" d="M 3513 2113 
L 3513 0 
L 2938 0 
L 2938 2094 
Q 2938 2591 2744 2837 
Q 2550 3084 2163 3084 
Q 1697 3084 1428 2787 
Q 1159 2491 1159 1978 
L 1159 0 
L 581 0 
L 581 3500 
L 1159 3500 
L 1159 2956 
Q 1366 3272 1645 3428 
Q 1925 3584 2291 3584 
Q 2894 3584 3203 3211 
Q 3513 2838 3513 2113 
z
" transform="scale(0.015625)"/>
       <path id="DejaVuSans-6b" d="M 581 4863 
L 1159 4863 
L 1159 1991 
L 2875 3500 
L 3609 3500 
L 1753 1863 
L 3688 0 
L 2938 0 
L 1159 1709 
L 1159 0 
L 581 0 
L 581 4863 
z
" transform="scale(0.015625)"/>
       <path id="DejaVuSans-65" d="M 3597 1894 
L 3597 1613 
L 953 1613 
Q 991 1019 1311 708 
Q 1631 397 2203 397 
Q 2534 397 2845 478 
Q 3156 559 3463 722 
L 3463 178 
Q 3153 47 2828 -22 
Q 2503 -91 2169 -91 
Q 1331 -91 842 396 
Q 353 884 353 1716 
Q 353 2575 817 3079 
Q 1281 3584 2069 3584 
Q 2775 3584 3186 3129 
Q 3597 2675 3597 1894 
z
M 3022 2063 
Q 3016 2534 2758 2815 
Q 2500 3097 2075 3097 
Q 1594 3097 1305 2825 
Q 1016 2553 972 2059 
L 3022 2063 
z
" transform="scale(0.015625)"/>
       <path id="DejaVuSans-64" d="M 2906 2969 
L 2906 4863 
L 3481 4863 
L 3481 0 
L 2906 0 
L 2906 525 
Q 2725 213 2448 61 
Q 2172 -91 1784 -91 
Q 1150 -91 751 415 
Q 353 922 353 1747 
Q 353 2572 751 3078 
Q 1150 3584 1784 3584 
Q 2172 3584 2448 3432 
Q 2725 3281 2906 2969 
z
M 947 1747 
Q 947 1113 1208 752 
Q 1469 391 1925 391 
Q 2381 391 2643 752 
Q 2906 1113 2906 1747 
Q 2906 2381 2643 2742 
Q 2381 3103 1925 3103 
Q 1469 3103 1208 2742 
Q 947 2381 947 1747 
z
" transform="scale(0.015625)"/>
       <path id="DejaVuSans-20" transform="scale(0.015625)"/>
       <path id="DejaVuSans-50" d="M 1259 4147 
L 1259 2394 
L 2053 2394 
Q 2494 2394 2734 2622 
Q 2975 2850 2975 3272 
Q 2975 3691 2734 3919 
Q 2494 4147 2053 4147 
L 1259 4147 
z
M 628 4666 
L 2053 4666 
Q 2838 4666 3239 4311 
Q 3641 3956 3641 3272 
Q 3641 2581 3239 2228 
Q 2838 1875 2053 1875 
L 1259 1875 
L 1259 0 
L 628 0 
L 628 4666 
z
" transform="scale(0.015625)"/>
       <path id="DejaVuSans-6f" d="M 1959 3097 
Q 1497 3097 1228 2736 
Q 959 2375 959 1747 
Q 959 1119 1226 758 
Q 1494 397 1959 397 
Q 2419 397 2687 759 
Q 2956 1122 2956 1747 
Q 2956 2369 2687 2733 
Q 2419 3097 1959 3097 
z
M 1959 3584 
Q 2709 3584 3137 3096 
Q 3566 2609 3566 1747 
Q 3566 888 3137 398 
Q 2709 -91 1959 -91 
Q 1206 -91 779 398 
Q 353 888 353 1747 
Q 353 2609 779 3096 
Q 1206 3584 1959 3584 
z
" transform="scale(0.015625)"/>
       <path id="DejaVuSans-73" d="M 2834 3397 
L 2834 2853 
Q 2591 2978 2328 3040 
Q 2066 3103 1784 3103 
Q 1356 3103 1142 2972 
Q 928 2841 928 2578 
Q 928 2378 1081 2264 
Q 1234 2150 1697 2047 
L 1894 2003 
Q 2506 1872 2764 1633 
Q 3022 1394 3022 966 
Q 3022 478 2636 193 
Q 2250 -91 1575 -91 
Q 1294 -91 989 -36 
Q 684 19 347 128 
L 347 722 
Q 666 556 975 473 
Q 1284 391 1588 391 
Q 1994 391 2212 530 
Q 2431 669 2431 922 
Q 2431 1156 2273 1281 
Q 2116 1406 1581 1522 
L 1381 1569 
Q 847 1681 609 1914 
Q 372 2147 372 2553 
Q 372 3047 722 3315 
Q 1072 3584 1716 3584 
Q 2034 3584 2315 3537 
Q 2597 3491 2834 3397 
z
" transform="scale(0.015625)"/>
       <path id="DejaVuSans-69" d="M 603 3500 
L 1178 3500 
L 1178 0 
L 603 0 
L 603 3500 
z
M 603 4863 
L 1178 4863 
L 1178 4134 
L 603 4134 
L 603 4863 
z
" transform="scale(0.015625)"/>
       <path id="DejaVuSans-74" d="M 1172 4494 
L 1172 3500 
L 2356 3500 
L 2356 3053 
L 1172 3053 
L 1172 1153 
Q 1172 725 1289 603 
Q 1406 481 1766 481 
L 2356 481 
L 2356 0 
L 1766 0 
Q 1100 0 847 248 
Q 594 497 594 1153 
L 594 3053 
L 172 3053 
L 172 3500 
L 594 3500 
L 594 4494 
L 1172 4494 
z
" transform="scale(0.015625)"/>
      </defs>
      <use xlink:href="#DejaVuSans-52"/>
      <use xlink:href="#DejaVuSans-61" transform="translate(67.232422 0)"/>
      <use xlink:href="#DejaVuSans-6e" transform="translate(128.511719 0)"/>
      <use xlink:href="#DejaVuSans-6b" transform="translate(191.890625 0)"/>
      <use xlink:href="#DejaVuSans-65" transform="translate(246.175781 0)"/>
      <use xlink:href="#DejaVuSans-64" transform="translate(307.699219 0)"/>
      <use xlink:href="#DejaVuSans-20" transform="translate(371.175781 0)"/>
      <use xlink:href="#DejaVuSans-50" transform="translate(402.962891 0)"/>
      <use xlink:href="#DejaVuSans-6f" transform="translate(459.640625 0)"/>
      <use xlink:href="#DejaVuSans-73" transform="translate(520.822266 0)"/>
      <use xlink:href="#DejaVuSans-69" transform="translate(572.921875 0)"/>
      <use xlink:href="#DejaVuSans-74" transform="translate(600.705078 0)"/>
      <use xlink:href="#DejaVuSans-69" transform="translate(639.914062 0)"/>
      <use xlink:href="#DejaVuSans-6f" transform="translate(667.697266 0)"/>
      <use xlink:href="#DejaVuSans-6e" transform="translate(728.878906 0)"/>
     </g>
    </g>
   </g>
   <g id="matplotlib.axis_2">
    <g id="ytick_1">
     <g id="line2d_15">
      <path d="M 54 369.36 
L 388.8 369.36 
" clip-path="url(#p8adc5f5cd4)" style="fill: none; stroke: #b0b0b0; stroke-width: 0.8; stroke-linecap: square"/>
     </g>
     <g id="line2d_16">
      <defs>
       <path id="m4ccee35e89" d="M 0 0 
L -3.5 0 
" style="stroke: #000000; stroke-width: 0.8"/>
      </defs>
      <g>
       <use xlink:href="#m4ccee35e89" x="54" y="369.36" style="stroke: #000000; stroke-width: 0.8"/>
      </g>
     </g>
     <g id="text_9">
      <!-- 0 -->
      <g transform="translate(40.6375 373.159219) scale(0.1 -0.1)">
       <use xlink:href="#DejaVuSans-30"/>
      </g>
     </g>
    </g>
    <g id="ytick_2">
     <g id="line2d_17">
      <path d="M 54 327.935342 
L 388.8 327.935342 
" clip-path="url(#p8adc5f5cd4)" style="fill: none; stroke: #b0b0b0; stroke-width: 0.8; stroke-linecap: square"/>
     </g>
     <g id="line2d_18">
      <g>
       <use xlink:href="#m4ccee35e89" x="54" y="327.935342" style="stroke: #000000; stroke-width: 0.8"/>
      </g>
     </g>
     <g id="text_10">
      <!-- 10 -->
      <g transform="translate(34.275 331.734561) scale(0.1 -0.1)">
       <use xlink:href="#DejaVuSans-31"/>
       <use xlink:href="#DejaVuSans-30" transform="translate(63.623047 0)"/>
      </g>
     </g>
    </g>
    <g id="ytick_3">
     <g id="line2d_19">
      <path d="M 54 286.510685 
L 388.8 286.510685 
" clip-path="url(#p8adc5f5cd4)" style="fill: none; stroke: #b0b0b0; stroke-width: 0.8; stroke-linecap: square"/>
     </g>
     <g id="line2d_20">
      <g>
       <use xlink:href="#m4ccee35e89" x="54" y="286.510685" style="stroke: #000000; stroke-width: 0.8"/>
      </g>
     </g>
     <g id="text_11">
      <!-- 20 -->
      <g transform="translate(34.275 290.309904) scale(0.1 -0.1)">
       <use xlink:href="#DejaVuSans-32"/>
       <use xlink:href="#DejaVuSans-30" transform="translate(63.623047 0)"/>
      </g>
     </g>
    </g>
    <g id="ytick_4">
     <g id="line2d_21">
      <path d="M 54 245.086027 
L 388.8 245.086027 
" clip-path="url(#p8adc5f5cd4)" style="fill: none; stroke: #b0b0b0; stroke-width: 0.8; stroke-linecap: square"/>
     </g>
     <g id="line2d_22">
      <g>
       <use xlink:href="#m4ccee35e89" x="54" y="245.086027" style="stroke: #000000; stroke-width: 0.8"/>
      </g>
     </g>
     <g id="text_12">
      <!-- 30 -->
      <g transform="translate(34.275 248.885246) scale(0.1 -0.1)">
       <use xlink:href="#DejaVuSans-33"/>
       <use xlink:href="#DejaVuSans-30" transform="translate(63.623047 0)"/>
      </g>
     </g>
    </g>
    <g id="ytick_5">
     <g id="line2d_23">
      <path d="M 54 203.66137 
L 388.8 203.66137 
" clip-path="url(#p8adc5f5cd4)" style="fill: none; stroke: #b0b0b0; stroke-width: 0.8; stroke-linecap: square"/>
     </g>
     <g id="line2d_24">
      <g>
       <use xlink:href="#m4ccee35e89" x="54" y="203.66137" style="stroke: #000000; stroke-width: 0.8"/>
      </g>
     </g>
     <g id="text_13">
      <!-- 40 -->
      <g transform="translate(34.275 207.460589) scale(0.1 -0.1)">
       <defs>
        <path id="DejaVuSans-34" d="M 2419 4116 
L 825 1625 
L 2419 1625 
L 2419 4116 
z
M 2253 4666 
L 3047 4666 
L 3047 1625 
L 3713 1625 
L 3713 1100 
L 3047 1100 
L 3047 0 
L 2419 0 
L 2419 1100 
L 313 1100 
L 313 1709 
L 2253 4666 
z
" transform="scale(0.015625)"/>
       </defs>
       <use xlink:href="#DejaVuSans-34"/>
       <use xlink:href="#DejaVuSans-30" transform="translate(63.623047 0)"/>
      </g>
     </g>
    </g>
    <g id="ytick_6">
     <g id="line2d_25">
      <path d="M 54 162.236712 
L 388.8 162.236712 
" clip-path="url(#p8adc5f5cd4)" style="fill: none; stroke: #b0b0b0; stroke-width: 0.8; stroke-linecap: square"/>
     </g>
     <g id="line2d_26">
      <g>
       <use xlink:href="#m4ccee35e89" x="54" y="162.236712" style="stroke: #000000; stroke-width: 0.8"/>
      </g>
     </g>
     <g id="text_14">
      <!-- 50 -->
      <g transform="translate(34.275 166.035931) scale(0.1 -0.1)">
       <use xlink:href="#DejaVuSans-35"/>
       <use xlink:href="#DejaVuSans-30" transform="translate(63.623047 0)"/>
      </g>
     </g>
    </g>
    <g id="ytick_7">
     <g id="line2d_27">
      <path d="M 54 120.812055 
L 388.8 120.812055 
" clip-path="url(#p8adc5f5cd4)" style="fill: none; stroke: #b0b0b0; stroke-width: 0.8; stroke-linecap: square"/>
     </g>
     <g id="line2d_28">
      <g>
       <use xlink:href="#m4ccee35e89" x="54" y="120.812055" style="stroke: #000000; stroke-width: 0.8"/>
      </g>
     </g>
     <g id="text_15">
      <!-- 60 -->
      <g transform="translate(34.275 124.611274) scale(0.1 -0.1)">
       <defs>
        <path id="DejaVuSans-36" d="M 2113 2584 
Q 1688 2584 1439 2293 
Q 1191 2003 1191 1497 
Q 1191 994 1439 701 
Q 1688 409 2113 409 
Q 2538 409 2786 701 
Q 3034 994 3034 1497 
Q 3034 2003 2786 2293 
Q 2538 2584 2113 2584 
z
M 3366 4563 
L 3366 3988 
Q 3128 4100 2886 4159 
Q 2644 4219 2406 4219 
Q 1781 4219 1451 3797 
Q 1122 3375 1075 2522 
Q 1259 2794 1537 2939 
Q 1816 3084 2150 3084 
Q 2853 3084 3261 2657 
Q 3669 2231 3669 1497 
Q 3669 778 3244 343 
Q 2819 -91 2113 -91 
Q 1303 -91 875 529 
Q 447 1150 447 2328 
Q 447 3434 972 4092 
Q 1497 4750 2381 4750 
Q 2619 4750 2861 4703 
Q 3103 4656 3366 4563 
z
" transform="scale(0.015625)"/>
       </defs>
       <use xlink:href="#DejaVuSans-36"/>
       <use xlink:href="#DejaVuSans-30" transform="translate(63.623047 0)"/>
      </g>
     </g>
    </g>
    <g id="ytick_8">
     <g id="line2d_29">
      <path d="M 54 79.387397 
L 388.8 79.387397 
" clip-path="url(#p8adc5f5cd4)" style="fill: none; stroke: #b0b0b0; stroke-width: 0.8; stroke-linecap: square"/>
     </g>
     <g id="line2d_30">
      <g>
       <use xlink:href="#m4ccee35e89" x="54" y="79.387397" style="stroke: #000000; stroke-width: 0.8"/>
      </g>
     </g>
     <g id="text_16">
      <!-- 70 -->
      <g transform="translate(34.275 83.186616) scale(0.1 -0.1)">
       <defs>
        <path id="DejaVuSans-37" d="M 525 4666 
L 3525 4666 
L 3525 4397 
L 1831 0 
L 1172 0 
L 2766 4134 
L 525 4134 
L 525 4666 
z
" transform="scale(0.015625)"/>
       </defs>
       <use xlink:href="#DejaVuSans-37"/>
       <use xlink:href="#DejaVuSans-30" transform="translate(63.623047 0)"/>
      </g>
     </g>
    </g>
    <g id="text_17">
     <!-- Final Grade -->
     <g transform="translate(28.195312 246.517812) rotate(-90) scale(0.1 -0.1)">
      <defs>
       <path id="DejaVuSans-46" d="M 628 4666 
L 3309 4666 
L 3309 4134 
L 1259 4134 
L 1259 2759 
L 3109 2759 
L 3109 2228 
L 1259 2228 
L 1259 0 
L 628 0 
L 628 4666 
z
" transform="scale(0.015625)"/>
       <path id="DejaVuSans-6c" d="M 603 4863 
L 1178 4863 
L 1178 0 
L 603 0 
L 603 4863 
z
" transform="scale(0.015625)"/>
       <path id="DejaVuSans-47" d="M 3809 666 
L 3809 1919 
L 2778 1919 
L 2778 2438 
L 4434 2438 
L 4434 434 
Q 4069 175 3628 42 
Q 3188 -91 2688 -91 
Q 1594 -91 976 548 
Q 359 1188 359 2328 
Q 359 3472 976 4111 
Q 1594 4750 2688 4750 
Q 3144 4750 3555 4637 
Q 3966 4525 4313 4306 
L 4313 3634 
Q 3963 3931 3569 4081 
Q 3175 4231 2741 4231 
Q 1884 4231 1454 3753 
Q 1025 3275 1025 2328 
Q 1025 1384 1454 906 
Q 1884 428 2741 428 
Q 3075 428 3337 486 
Q 3600 544 3809 666 
z
" transform="scale(0.015625)"/>
       <path id="DejaVuSans-72" d="M 2631 2963 
Q 2534 3019 2420 3045 
Q 2306 3072 2169 3072 
Q 1681 3072 1420 2755 
Q 1159 2438 1159 1844 
L 1159 0 
L 581 0 
L 581 3500 
L 1159 3500 
L 1159 2956 
Q 1341 3275 1631 3429 
Q 1922 3584 2338 3584 
Q 2397 3584 2469 3576 
Q 2541 3569 2628 3553 
L 2631 2963 
z
" transform="scale(0.015625)"/>
      </defs>
      <use xlink:href="#DejaVuSans-46"/>
      <use xlink:href="#DejaVuSans-69" transform="translate(50.269531 0)"/>
      <use xlink:href="#DejaVuSans-6e" transform="translate(78.052734 0)"/>
      <use xlink:href="#DejaVuSans-61" transform="translate(141.431641 0)"/>
      <use xlink:href="#DejaVuSans-6c" transform="translate(202.710938 0)"/>
      <use xlink:href="#DejaVuSans-20" transform="translate(230.494141 0)"/>
      <use xlink:href="#DejaVuSans-47" transform="translate(262.28125 0)"/>
      <use xlink:href="#DejaVuSans-72" transform="translate(339.771484 0)"/>
      <use xlink:href="#DejaVuSans-61" transform="translate(380.884766 0)"/>
      <use xlink:href="#DejaVuSans-64" transform="translate(442.164062 0)"/>
      <use xlink:href="#DejaVuSans-65" transform="translate(505.640625 0)"/>
     </g>
    </g>
   </g>
   <g id="line2d_31">
    <path d="M 69.218182 66.96 
L 70.253432 71.102466 
L 71.288683 79.387397 
L 72.323933 79.387397 
L 74.394434 87.672329 
L 75.429685 87.672329 
L 76.464935 95.95726 
L 78.535436 104.242192 
L 79.570686 112.527123 
L 84.746939 112.527123 
L 85.782189 116.669589 
L 88.887941 116.669589 
L 89.923191 120.812055 
L 93.028942 120.812055 
L 94.064193 124.954521 
L 98.205195 124.954521 
L 99.240445 129.096986 
L 100.275696 129.096986 
L 101.310946 133.239452 
L 105.451948 133.239452 
L 106.487199 137.381918 
L 109.59295 137.381918 
L 110.6282 141.524384 
L 113.733952 141.524384 
L 114.769202 145.666849 
L 122.015955 145.666849 
L 123.051206 149.809315 
L 128.227458 149.809315 
L 129.262709 153.951781 
L 142.720965 153.951781 
L 143.756215 158.094247 
L 153.073469 158.094247 
L 154.10872 162.236712 
L 165.496475 162.236712 
L 166.531725 166.379178 
L 174.813729 166.379178 
L 175.84898 170.521644 
L 196.553989 170.521644 
L 197.589239 174.66411 
L 208.976994 174.66411 
L 210.012245 178.806575 
L 228.646753 178.806575 
L 229.682004 182.949041 
L 235.893506 182.949041 
L 236.928757 187.091507 
L 255.563265 187.091507 
L 256.598516 191.233973 
L 263.845269 191.233973 
L 264.880519 195.376438 
L 276.268275 195.376438 
L 277.303525 199.518904 
L 284.550278 199.518904 
L 285.585529 203.66137 
L 295.938033 203.66137 
L 296.973284 207.803836 
L 307.325788 207.803836 
L 308.361039 211.946301 
L 319.748794 211.946301 
L 320.784045 216.088767 
L 328.030798 216.088767 
L 329.066048 220.231233 
L 339.418553 220.231233 
L 340.453803 224.373699 
L 347.700557 224.373699 
L 348.735807 228.516164 
L 357.017811 228.516164 
L 359.088312 236.801096 
L 366.335065 236.801096 
L 367.370315 240.943562 
L 370.476067 240.943562 
L 371.511317 245.086027 
L 373.581818 245.086027 
L 373.581818 245.086027 
" clip-path="url(#p8adc5f5cd4)" style="fill: none; stroke: #000000; stroke-width: 1.5; stroke-linecap: square"/>
   </g>
   <g id="line2d_32">
    <path d="M 129.262709 384.48 
L 129.262709 51.84 
" clip-path="url(#p8adc5f5cd4)" style="fill: none; stroke-dasharray: 5.55,2.4; stroke-dashoffset: 0; stroke: #ff0000; stroke-width: 1.5"/>
   </g>
   <g id="patch_3">
    <path d="M 54 384.48 
L 54 51.84 
" style="fill: none; stroke: #000000; stroke-width: 0.8; stroke-linejoin: miter; stroke-linecap: square"/>
   </g>
   <g id="patch_4">
    <path d="M 388.8 384.48 
L 388.8 51.84 
" style="fill: none; stroke: #000000; stroke-width: 0.8; stroke-linejoin: miter; stroke-linecap: square"/>
   </g>
   <g id="patch_5">
    <path d="M 54 384.48 
L 388.8 384.48 
" style="fill: none; stroke: #000000; stroke-width: 0.8; stroke-linejoin: miter; stroke-linecap: square"/>
   </g>
   <g id="patch_6">
    <path d="M 54 51.84 
L 388.8 51.84 
" style="fill: none; stroke: #000000; stroke-width: 0.8; stroke-linejoin: miter; stroke-linecap: square"/>
   </g>
   <g id="text_18">
    <!-- My Position in the Grade Distribution -->
    <g transform="translate(111.16875 45.84) scale(0.12 -0.12)">
     <defs>
      <path id="DejaVuSans-4d" d="M 628 4666 
L 1569 4666 
L 2759 1491 
L 3956 4666 
L 4897 4666 
L 4897 0 
L 4281 0 
L 4281 4097 
L 3078 897 
L 2444 897 
L 1241 4097 
L 1241 0 
L 628 0 
L 628 4666 
z
" transform="scale(0.015625)"/>
      <path id="DejaVuSans-79" d="M 2059 -325 
Q 1816 -950 1584 -1140 
Q 1353 -1331 966 -1331 
L 506 -1331 
L 506 -850 
L 844 -850 
Q 1081 -850 1212 -737 
Q 1344 -625 1503 -206 
L 1606 56 
L 191 3500 
L 800 3500 
L 1894 763 
L 2988 3500 
L 3597 3500 
L 2059 -325 
z
" transform="scale(0.015625)"/>
      <path id="DejaVuSans-68" d="M 3513 2113 
L 3513 0 
L 2938 0 
L 2938 2094 
Q 2938 2591 2744 2837 
Q 2550 3084 2163 3084 
Q 1697 3084 1428 2787 
Q 1159 2491 1159 1978 
L 1159 0 
L 581 0 
L 581 4863 
L 1159 4863 
L 1159 2956 
Q 1366 3272 1645 3428 
Q 1925 3584 2291 3584 
Q 2894 3584 3203 3211 
Q 3513 2838 3513 2113 
z
" transform="scale(0.015625)"/>
      <path id="DejaVuSans-44" d="M 1259 4147 
L 1259 519 
L 2022 519 
Q 2988 519 3436 956 
Q 3884 1394 3884 2338 
Q 3884 3275 3436 3711 
Q 2988 4147 2022 4147 
L 1259 4147 
z
M 628 4666 
L 1925 4666 
Q 3281 4666 3915 4102 
Q 4550 3538 4550 2338 
Q 4550 1131 3912 565 
Q 3275 0 1925 0 
L 628 0 
L 628 4666 
z
" transform="scale(0.015625)"/>
      <path id="DejaVuSans-62" d="M 3116 1747 
Q 3116 2381 2855 2742 
Q 2594 3103 2138 3103 
Q 1681 3103 1420 2742 
Q 1159 2381 1159 1747 
Q 1159 1113 1420 752 
Q 1681 391 2138 391 
Q 2594 391 2855 752 
Q 3116 1113 3116 1747 
z
M 1159 2969 
Q 1341 3281 1617 3432 
Q 1894 3584 2278 3584 
Q 2916 3584 3314 3078 
Q 3713 2572 3713 1747 
Q 3713 922 3314 415 
Q 2916 -91 2278 -91 
Q 1894 -91 1617 61 
Q 1341 213 1159 525 
L 1159 0 
L 581 0 
L 581 4863 
L 1159 4863 
L 1159 2969 
z
" transform="scale(0.015625)"/>
      <path id="DejaVuSans-75" d="M 544 1381 
L 544 3500 
L 1119 3500 
L 1119 1403 
Q 1119 906 1312 657 
Q 1506 409 1894 409 
Q 2359 409 2629 706 
Q 2900 1003 2900 1516 
L 2900 3500 
L 3475 3500 
L 3475 0 
L 2900 0 
L 2900 538 
Q 2691 219 2414 64 
Q 2138 -91 1772 -91 
Q 1169 -91 856 284 
Q 544 659 544 1381 
z
M 1991 3584 
L 1991 3584 
z
" transform="scale(0.015625)"/>
     </defs>
     <use xlink:href="#DejaVuSans-4d"/>
     <use xlink:href="#DejaVuSans-79" transform="translate(86.279297 0)"/>
     <use xlink:href="#DejaVuSans-20" transform="translate(145.458984 0)"/>
     <use xlink:href="#DejaVuSans-50" transform="translate(177.246094 0)"/>
     <use xlink:href="#DejaVuSans-6f" transform="translate(233.923828 0)"/>
     <use xlink:href="#DejaVuSans-73" transform="translate(295.105469 0)"/>
     <use xlink:href="#DejaVuSans-69" transform="translate(347.205078 0)"/>
     <use xlink:href="#DejaVuSans-74" transform="translate(374.988281 0)"/>
     <use xlink:href="#DejaVuSans-69" transform="translate(414.197266 0)"/>
     <use xlink:href="#DejaVuSans-6f" transform="translate(441.980469 0)"/>
     <use xlink:href="#DejaVuSans-6e" transform="translate(503.162109 0)"/>
     <use xlink:href="#DejaVuSans-20" transform="translate(566.541016 0)"/>
     <use xlink:href="#DejaVuSans-69" transform="translate(598.328125 0)"/>
     <use xlink:href="#DejaVuSans-6e" transform="translate(626.111328 0)"/>
     <use xlink:href="#DejaVuSans-20" transform="translate(689.490234 0)"/>
     <use xlink:href="#DejaVuSans-74" transform="translate(721.277344 0)"/>
     <use xlink:href="#DejaVuSans-68" transform="translate(760.486328 0)"/>
     <use xlink:href="#DejaVuSans-65" transform="translate(823.865234 0)"/>
     <use xlink:href="#DejaVuSans-20" transform="translate(885.388672 0)"/>
     <use xlink:href="#DejaVuSans-47" transform="translate(917.175781 0)"/>
     <use xlink:href="#DejaVuSans-72" transform="translate(994.666016 0)"/>
     <use xlink:href="#DejaVuSans-61" transform="translate(1035.779297 0)"/>
     <use xlink:href="#DejaVuSans-64" transform="translate(1097.058594 0)"/>
     <use xlink:href="#DejaVuSans-65" transform="translate(1160.535156 0)"/>
     <use xlink:href="#DejaVuSans-20" transform="translate(1222.058594 0)"/>
     <use xlink:href="#DejaVuSans-44" transform="translate(1253.845703 0)"/>
     <use xlink:href="#DejaVuSans-69" transform="translate(1330.847656 0)"/>
     <use xlink:href="#DejaVuSans-73" transform="translate(1358.630859 0)"/>
     <use xlink:href="#DejaVuSans-74" transform="translate(1410.730469 0)"/>
     <use xlink:href="#DejaVuSans-72" transform="translate(1449.939453 0)"/>
     <use xlink:href="#DejaVuSans-69" transform="translate(1491.052734 0)"/>
     <use xlink:href="#DejaVuSans-62" transform="translate(1518.835938 0)"/>
     <use xlink:href="#DejaVuSans-75" transform="translate(1582.3125 0)"/>
     <use xlink:href="#DejaVuSans-74" transform="translate(1645.691406 0)"/>
     <use xlink:href="#DejaVuSans-69" transform="translate(1684.900391 0)"/>
     <use xlink:href="#DejaVuSans-6f" transform="translate(1712.683594 0)"/>
     <use xlink:href="#DejaVuSans-6e" transform="translate(1773.865234 0)"/>
    </g>
   </g>
   <g id="legend_1">
    <g id="patch_7">
     <path d="M 267.315625 118.5525 
L 381.8 118.5525 
Q 383.8 118.5525 383.8 116.5525 
L 383.8 58.84 
Q 383.8 56.84 381.8 56.84 
L 267.315625 56.84 
Q 265.315625 56.84 265.315625 58.84 
L 265.315625 116.5525 
Q 265.315625 118.5525 267.315625 118.5525 
z
" style="fill: #ffffff; opacity: 0.8; stroke: #cccccc; stroke-linejoin: miter"/>
    </g>
    <g id="line2d_33">
     <path d="M 269.315625 64.938438 
L 279.315625 64.938438 
L 289.315625 64.938438 
" style="fill: none; stroke: #000000; stroke-width: 1.5; stroke-linecap: square"/>
    </g>
    <g id="text_19">
     <!-- Sorted Grades -->
     <g transform="translate(297.315625 68.438438) scale(0.1 -0.1)">
      <defs>
       <path id="DejaVuSans-53" d="M 3425 4513 
L 3425 3897 
Q 3066 4069 2747 4153 
Q 2428 4238 2131 4238 
Q 1616 4238 1336 4038 
Q 1056 3838 1056 3469 
Q 1056 3159 1242 3001 
Q 1428 2844 1947 2747 
L 2328 2669 
Q 3034 2534 3370 2195 
Q 3706 1856 3706 1288 
Q 3706 609 3251 259 
Q 2797 -91 1919 -91 
Q 1588 -91 1214 -16 
Q 841 59 441 206 
L 441 856 
Q 825 641 1194 531 
Q 1563 422 1919 422 
Q 2459 422 2753 634 
Q 3047 847 3047 1241 
Q 3047 1584 2836 1778 
Q 2625 1972 2144 2069 
L 1759 2144 
Q 1053 2284 737 2584 
Q 422 2884 422 3419 
Q 422 4038 858 4394 
Q 1294 4750 2059 4750 
Q 2388 4750 2728 4690 
Q 3069 4631 3425 4513 
z
" transform="scale(0.015625)"/>
      </defs>
      <use xlink:href="#DejaVuSans-53"/>
      <use xlink:href="#DejaVuSans-6f" transform="translate(63.476562 0)"/>
      <use xlink:href="#DejaVuSans-72" transform="translate(124.658203 0)"/>
      <use xlink:href="#DejaVuSans-74" transform="translate(165.771484 0)"/>
      <use xlink:href="#DejaVuSans-65" transform="translate(204.980469 0)"/>
      <use xlink:href="#DejaVuSans-64" transform="translate(266.503906 0)"/>
      <use xlink:href="#DejaVuSans-20" transform="translate(329.980469 0)"/>
      <use xlink:href="#DejaVuSans-47" transform="translate(361.767578 0)"/>
      <use xlink:href="#DejaVuSans-72" transform="translate(439.257812 0)"/>
      <use xlink:href="#DejaVuSans-61" transform="translate(480.371094 0)"/>
      <use xlink:href="#DejaVuSans-64" transform="translate(541.650391 0)"/>
      <use xlink:href="#DejaVuSans-65" transform="translate(605.126953 0)"/>
      <use xlink:href="#DejaVuSans-73" transform="translate(666.650391 0)"/>
     </g>
    </g>
    <g id="patch_8">
     <path d="M 269.315625 83.116563 
L 289.315625 83.116563 
L 289.315625 76.116563 
L 269.315625 76.116563 
z
" style="fill: #0000ff; fill-opacity: 0.3; stroke: #0000ff; stroke-opacity: 0.3; stroke-linejoin: miter"/>
    </g>
    <g id="text_20">
     <!-- Above my grade -->
     <g transform="translate(297.315625 83.116563) scale(0.1 -0.1)">
      <defs>
       <path id="DejaVuSans-41" d="M 2188 4044 
L 1331 1722 
L 3047 1722 
L 2188 4044 
z
M 1831 4666 
L 2547 4666 
L 4325 0 
L 3669 0 
L 3244 1197 
L 1141 1197 
L 716 0 
L 50 0 
L 1831 4666 
z
" transform="scale(0.015625)"/>
       <path id="DejaVuSans-76" d="M 191 3500 
L 800 3500 
L 1894 563 
L 2988 3500 
L 3597 3500 
L 2284 0 
L 1503 0 
L 191 3500 
z
" transform="scale(0.015625)"/>
       <path id="DejaVuSans-6d" d="M 3328 2828 
Q 3544 3216 3844 3400 
Q 4144 3584 4550 3584 
Q 5097 3584 5394 3201 
Q 5691 2819 5691 2113 
L 5691 0 
L 5113 0 
L 5113 2094 
Q 5113 2597 4934 2840 
Q 4756 3084 4391 3084 
Q 3944 3084 3684 2787 
Q 3425 2491 3425 1978 
L 3425 0 
L 2847 0 
L 2847 2094 
Q 2847 2600 2669 2842 
Q 2491 3084 2119 3084 
Q 1678 3084 1418 2786 
Q 1159 2488 1159 1978 
L 1159 0 
L 581 0 
L 581 3500 
L 1159 3500 
L 1159 2956 
Q 1356 3278 1631 3431 
Q 1906 3584 2284 3584 
Q 2666 3584 2933 3390 
Q 3200 3197 3328 2828 
z
" transform="scale(0.015625)"/>
       <path id="DejaVuSans-67" d="M 2906 1791 
Q 2906 2416 2648 2759 
Q 2391 3103 1925 3103 
Q 1463 3103 1205 2759 
Q 947 2416 947 1791 
Q 947 1169 1205 825 
Q 1463 481 1925 481 
Q 2391 481 2648 825 
Q 2906 1169 2906 1791 
z
M 3481 434 
Q 3481 -459 3084 -895 
Q 2688 -1331 1869 -1331 
Q 1566 -1331 1297 -1286 
Q 1028 -1241 775 -1147 
L 775 -588 
Q 1028 -725 1275 -790 
Q 1522 -856 1778 -856 
Q 2344 -856 2625 -561 
Q 2906 -266 2906 331 
L 2906 616 
Q 2728 306 2450 153 
Q 2172 0 1784 0 
Q 1141 0 747 490 
Q 353 981 353 1791 
Q 353 2603 747 3093 
Q 1141 3584 1784 3584 
Q 2172 3584 2450 3431 
Q 2728 3278 2906 2969 
L 2906 3500 
L 3481 3500 
L 3481 434 
z
" transform="scale(0.015625)"/>
      </defs>
      <use xlink:href="#DejaVuSans-41"/>
      <use xlink:href="#DejaVuSans-62" transform="translate(68.408203 0)"/>
      <use xlink:href="#DejaVuSans-6f" transform="translate(131.884766 0)"/>
      <use xlink:href="#DejaVuSans-76" transform="translate(193.066406 0)"/>
      <use xlink:href="#DejaVuSans-65" transform="translate(252.246094 0)"/>
      <use xlink:href="#DejaVuSans-20" transform="translate(313.769531 0)"/>
      <use xlink:href="#DejaVuSans-6d" transform="translate(345.556641 0)"/>
      <use xlink:href="#DejaVuSans-79" transform="translate(442.96875 0)"/>
      <use xlink:href="#DejaVuSans-20" transform="translate(502.148438 0)"/>
      <use xlink:href="#DejaVuSans-67" transform="translate(533.935547 0)"/>
      <use xlink:href="#DejaVuSans-72" transform="translate(597.412109 0)"/>
      <use xlink:href="#DejaVuSans-61" transform="translate(638.525391 0)"/>
      <use xlink:href="#DejaVuSans-64" transform="translate(699.804688 0)"/>
      <use xlink:href="#DejaVuSans-65" transform="translate(763.28125 0)"/>
     </g>
    </g>
    <g id="patch_9">
     <path d="M 269.315625 97.794688 
L 289.315625 97.794688 
L 289.315625 90.794688 
L 269.315625 90.794688 
z
" style="fill: #008000; fill-opacity: 0.3; stroke: #008000; stroke-opacity: 0.3; stroke-linejoin: miter"/>
    </g>
    <g id="text_21">
     <!-- Below my grade -->
     <g transform="translate(297.315625 97.794688) scale(0.1 -0.1)">
      <defs>
       <path id="DejaVuSans-42" d="M 1259 2228 
L 1259 519 
L 2272 519 
Q 2781 519 3026 730 
Q 3272 941 3272 1375 
Q 3272 1813 3026 2020 
Q 2781 2228 2272 2228 
L 1259 2228 
z
M 1259 4147 
L 1259 2741 
L 2194 2741 
Q 2656 2741 2882 2914 
Q 3109 3088 3109 3444 
Q 3109 3797 2882 3972 
Q 2656 4147 2194 4147 
L 1259 4147 
z
M 628 4666 
L 2241 4666 
Q 2963 4666 3353 4366 
Q 3744 4066 3744 3513 
Q 3744 3084 3544 2831 
Q 3344 2578 2956 2516 
Q 3422 2416 3680 2098 
Q 3938 1781 3938 1306 
Q 3938 681 3513 340 
Q 3088 0 2303 0 
L 628 0 
L 628 4666 
z
" transform="scale(0.015625)"/>
       <path id="DejaVuSans-77" d="M 269 3500 
L 844 3500 
L 1563 769 
L 2278 3500 
L 2956 3500 
L 3675 769 
L 4391 3500 
L 4966 3500 
L 4050 0 
L 3372 0 
L 2619 2869 
L 1863 0 
L 1184 0 
L 269 3500 
z
" transform="scale(0.015625)"/>
      </defs>
      <use xlink:href="#DejaVuSans-42"/>
      <use xlink:href="#DejaVuSans-65" transform="translate(68.603516 0)"/>
      <use xlink:href="#DejaVuSans-6c" transform="translate(130.126953 0)"/>
      <use xlink:href="#DejaVuSans-6f" transform="translate(157.910156 0)"/>
      <use xlink:href="#DejaVuSans-77" transform="translate(219.091797 0)"/>
      <use xlink:href="#DejaVuSans-20" transform="translate(300.878906 0)"/>
      <use xlink:href="#DejaVuSans-6d" transform="translate(332.666016 0)"/>
      <use xlink:href="#DejaVuSans-79" transform="translate(430.078125 0)"/>
      <use xlink:href="#DejaVuSans-20" transform="translate(489.257812 0)"/>
      <use xlink:href="#DejaVuSans-67" transform="translate(521.044922 0)"/>
      <use xlink:href="#DejaVuSans-72" transform="translate(584.521484 0)"/>
      <use xlink:href="#DejaVuSans-61" transform="translate(625.634766 0)"/>
      <use xlink:href="#DejaVuSans-64" transform="translate(686.914062 0)"/>
      <use xlink:href="#DejaVuSans-65" transform="translate(750.390625 0)"/>
     </g>
    </g>
    <g id="line2d_34">
     <path d="M 269.315625 108.972813 
L 279.315625 108.972813 
L 289.315625 108.972813 
" style="fill: none; stroke-dasharray: 5.55,2.4; stroke-dashoffset: 0; stroke: #ff0000; stroke-width: 1.5"/>
    </g>
    <g id="text_22">
     <!-- My Grade = 52 -->
     <g transform="translate(297.315625 112.472813) scale(0.1 -0.1)">
      <defs>
       <path id="DejaVuSans-3d" d="M 678 2906 
L 4684 2906 
L 4684 2381 
L 678 2381 
L 678 2906 
z
M 678 1631 
L 4684 1631 
L 4684 1100 
L 678 1100 
L 678 1631 
z
" transform="scale(0.015625)"/>
      </defs>
      <use xlink:href="#DejaVuSans-4d"/>
      <use xlink:href="#DejaVuSans-79" transform="translate(86.279297 0)"/>
      <use xlink:href="#DejaVuSans-20" transform="translate(145.458984 0)"/>
      <use xlink:href="#DejaVuSans-47" transform="translate(177.246094 0)"/>
      <use xlink:href="#DejaVuSans-72" transform="translate(254.736328 0)"/>
      <use xlink:href="#DejaVuSans-61" transform="translate(295.849609 0)"/>
      <use xlink:href="#DejaVuSans-64" transform="translate(357.128906 0)"/>
      <use xlink:href="#DejaVuSans-65" transform="translate(420.605469 0)"/>
      <use xlink:href="#DejaVuSans-20" transform="translate(482.128906 0)"/>
      <use xlink:href="#DejaVuSans-3d" transform="translate(513.916016 0)"/>
      <use xlink:href="#DejaVuSans-20" transform="translate(597.705078 0)"/>
      <use xlink:href="#DejaVuSans-35" transform="translate(629.492188 0)"/>
      <use xlink:href="#DejaVuSans-32" transform="translate(693.115234 0)"/>
     </g>
    </g>
   </g>
  </g>
 </g>
 <defs>
  <clipPath id="p8adc5f5cd4">
   <rect x="54" y="51.84" width="334.8" height="332.64"/>
  </clipPath>
 </defs>
</svg>
